<?xml version="1.0" standalone="yes"?>
<svg xmlns="http://www.w3.org/2000/svg" width="1024" height="1024">
<path style="fill:#fdfdfd; stroke:none;" d="M0 0L0 1024L960 1024L960 1008L1024 1008L1024 0L0 0z"/>
<path style="fill:#3e48fd; stroke:none;" d="M276 466L276 467L293 467L276 466z"/>
<path style="fill:#64c99d; stroke:none;" d="M293 466L293 467L296 467L293 466M274 467L274 470L275 470L274 467z"/>
<path style="fill:#040304; stroke:none;" d="M275 467L275 510C275 514.503 276.571 522.787 273.972 526.682C271.569 530.284 264.691 529 261 529C248.803 529 206.684 526.184 224 549C205.543 546.233 206.597 529.84 219.015 519.329C224.588 514.611 231.749 512.195 239 512.015C242.992 511.915 251.093 513.589 254.397 510.972C259.828 506.67 255.619 487.582 250.66 484.089C242.218 478.145 227.81 483.873 219 486C203.008 489.86 183.591 499.153 176.468 515.039C163.077 544.903 181.756 593.536 219 591.896C228.495 591.478 238.507 588.873 247 584.623C261.302 577.467 265.108 561.281 276 551C276.034 557.109 272.765 578.14 277.603 581.972C281.682 585.202 295.481 583.93 301 585L305 554C314.642 561.096 322.676 582.159 335 584.319C340.953 585.362 347.25 577.55 344.997 572C340.405 560.687 327.752 544.478 319 536L319 535L335 525C335 538.812 336.483 557.8 346.572 568.586C368.472 591.999 423.439 584.493 435 554L436 554C444.188 592.143 496.799 597.14 521.79 572.675C527.65 566.939 529.837 558.622 532 551C537.014 562.805 538.369 576.376 548.174 585.79C571.84 608.516 612.933 601.019 628.536 574C643.384 548.287 641 508.673 641 480L606 480C605.878 494.749 601.669 509.654 598.665 524C597.16 531.185 597.213 538.974 595.057 545.995C593.21 552.009 581.823 557.208 576.419 552.512C572.364 548.99 572.063 540.947 572.004 536C571.86 523.99 571 512.057 571 500C571 495.542 572.954 485.307 568.682 482.457C563.205 478.802 553.099 481.566 547 481.975C541.49 482.345 536.262 483.331 531 485L529 479L498 481C498 498.86 498.39 517.406 494.826 534.999C493.342 542.324 484.989 547.044 478.004 543.542C471.837 540.451 469.703 534.061 467.59 528C462.142 512.368 463.024 494.23 460 478C449.983 479.294 436.686 486.278 427 485.281C419.201 484.478 409.935 477.934 402 475.745C381.706 470.148 349.234 476.007 340 497L338 497C326.073 471.334 301.095 467 275 467z"/>
<path style="fill:#3e48fd; stroke:none;" d="M296 467L296 468L299 468L296 467z"/>
<path style="fill:#64c99d; stroke:none;" d="M299 467L300 468L299 467z"/>
<path style="fill:#3e48fd; stroke:none;" d="M301 468L302 469L301 468z"/>
<path style="fill:#64c99d; stroke:none;" d="M302 468L303 469L302 468z"/>
<path style="fill:#3e48fd; stroke:none;" d="M304.667 469.333L305.333 469.667L304.667 469.333z"/>
<path style="fill:#64c99d; stroke:none;" d="M306 469L307 470L306 469z"/>
<path style="fill:#3e48fd; stroke:none;" d="M274 470L274 528L275 528L275 489L274 470z"/>
<path style="fill:#64c99d; stroke:none;" d="M308 470L309 471L308 470z"/>
<path style="fill:#3e48fd; stroke:none;" d="M646 470L646 471L683 471C673.202 466.889 656.649 470 646 470M310 471L311 472L310 471z"/>
<path style="fill:#64c99d; stroke:none;" d="M311 471L312 472L311 471M645 471L645 480L646 480L645 471z"/>
<path style="fill:#040304; stroke:none;" d="M646 471C646 494.828 644.537 519.224 642.911 543C642.177 553.716 639.69 569.715 643.742 579.995C647.857 590.438 656.798 584.273 664.039 585.584C667.812 586.267 677.008 589.537 679.397 584.682C681.268 580.878 680 574.155 680 570C680 557.965 679 546.045 679 534L681 534C682.427 550.343 693.134 564.738 700.247 579C703.139 584.799 705.406 592.729 711.184 596.421C715.296 599.048 719.943 596.04 724 594.746C730.111 592.798 736.631 592.734 743 592.853C749.425 592.974 752.89 598.555 759 598.927C763.904 599.225 768.235 596.77 773 596.184C792.911 593.738 814.368 590.95 829.911 576.699C849.628 558.621 853.528 526.305 836.41 505.3C827.266 494.08 812.511 487.073 799 482.67C782.94 477.435 767.474 479 751 479L752 476L720 475.714L710.313 478.318L710.714 493L712 521C704.685 511.13 694.89 500.115 689.75 489C687.776 484.731 686.145 473.759 681.686 471.603C673.221 467.512 655.415 471 646 471z"/>
<path style="fill:#64c99d; stroke:none;" d="M683 471L684 472L683 471z"/>
<path style="fill:#3e48fd; stroke:none;" d="M312 472L313 473L312 472z"/>
<path style="fill:#64c99d; stroke:none;" d="M313 472L314 473L313 472z"/>
<path style="fill:#3e48fd; stroke:none;" d="M314 473L315 474L314 473z"/>
<path style="fill:#64c99d; stroke:none;" d="M315 473L316 474L315 473M383 473L384 474L383 473M386 473L386 474L390 474L386 473M393.667 473.333L394.333 473.667L393.667 473.333M684.333 473.667L684.667 474.333L684.333 473.667M317 474L318 475L317 474M373 474L373 475L376 475L373 474z"/>
<path style="fill:#3e48fd; stroke:none;" d="M376 474L376 475L382 475L376 474M385 474L386 475L385 474M391 474L392 475L391 474M396 474L396 475L399 475L396 474z"/>
<path style="fill:#64c99d; stroke:none;" d="M399.667 474.333L400.333 474.667L399.667 474.333M722 474L722 475L731 475L722 474z"/>
<path style="fill:#3e48fd; stroke:none;" d="M731 474L731 475L744 475L731 474z"/>
<path style="fill:#64c99d; stroke:none;" d="M744 474L744 475L749 475L744 474M319 475L320 476L319 475M369.667 475.333L370.333 475.667L369.667 475.333z"/>
<path style="fill:#3e48fd; stroke:none;" d="M371.667 475.333L372.333 475.667L371.667 475.333M401.667 475.333L402.333 475.667L401.667 475.333z"/>
<path style="fill:#64c99d; stroke:none;" d="M403 475L404 476L403 475z"/>
<path style="fill:#3e48fd; stroke:none;" d="M684.333 475.667L684.667 476.333L684.333 475.667z"/>
<path style="fill:#64c99d; stroke:none;" d="M711.667 475.333L712.333 475.667L711.667 475.333z"/>
<path style="fill:#3e48fd; stroke:none;" d="M713 475L713 476L722 476L713 475M750 475L751 476L750 475z"/>
<path style="fill:#64c99d; stroke:none;" d="M751 475L752 476L751 475z"/>
<path style="fill:#3e48fd; stroke:none;" d="M320 476L321 477L320 476z"/>
<path style="fill:#64c99d; stroke:none;" d="M366 476L367 477L366 476z"/>
<path style="fill:#3e48fd; stroke:none;" d="M367 476L368 477L367 476M404 476L405 477L404 476z"/>
<path style="fill:#64c99d; stroke:none;" d="M405.667 476.333L406.333 476.667L405.667 476.333M709 476L710 477L709 476z"/>
<path style="fill:#3e48fd; stroke:none;" d="M710 476L711 477L710 476z"/>
<path style="fill:#64c99d; stroke:none;" d="M752 476C752.729 479.403 754.806 478.987 758 479L758 478L754 476L754 478L753 478L752 476z"/>
<path style="fill:#3e48fd; stroke:none;" d="M753.333 476.667L753.667 477.333L753.333 476.667M321 477L322 478L321 477z"/>
<path style="fill:#64c99d; stroke:none;" d="M322 477L323 478L322 477M363 477L364 478L363 477z"/>
<path style="fill:#3e48fd; stroke:none;" d="M364.667 477.333L365.333 477.667L364.667 477.333M407.667 477.333L408.333 477.667L407.667 477.333z"/>
<path style="fill:#64c99d; stroke:none;" d="M409.667 477.333L410.333 477.667L409.667 477.333M457 477L457 478L460 478L457 477M685 477L686 478L685 477z"/>
<path style="fill:#3e48fd; stroke:none;" d="M709 477L710 478L709 477z"/>
<path style="fill:#64c99d; stroke:none;" d="M765 477L765 478L775 478L765 477z"/>
<path style="fill:#3e48fd; stroke:none;" d="M323 478L324 479L323 478z"/>
<path style="fill:#64c99d; stroke:none;" d="M324 478L325 479L324 478M359 478L360 479L359 478z"/>
<path style="fill:#3e48fd; stroke:none;" d="M360.667 478.333L361.333 478.667L360.667 478.333M411 478L412 479L411 478z"/>
<path style="fill:#64c99d; stroke:none;" d="M412 478L413 479L412 478M452.667 478.333L453.333 478.667L452.667 478.333z"/>
<path style="fill:#3e48fd; stroke:none;" d="M454 478L454 479L457 479L454 478M460 478L460 481L461 481L460 478M685 478L686 479L685 478z"/>
<path style="fill:#64c99d; stroke:none;" d="M708 478L709 479L708 478z"/>
<path style="fill:#3e48fd; stroke:none;" d="M751 478L752 479L751 478M758 478L758 479L765 479L758 478M776 478L776 479L781 479L776 478z"/>
<path style="fill:#64c99d; stroke:none;" d="M781 478L781 479L784 479L781 478z"/>
<path style="fill:#3e48fd; stroke:none;" d="M325 479L326 480L325 479z"/>
<path style="fill:#64c99d; stroke:none;" d="M326 479L327 480L326 479z"/>
<path style="fill:#3e48fd; stroke:none;" d="M357 479L358 480L357 479M413 479L414 480L413 479z"/>
<path style="fill:#64c99d; stroke:none;" d="M414 479L415 480L414 479M446 479L446 480L449 480L446 479z"/>
<path style="fill:#3e48fd; stroke:none;" d="M449 479L449 480L452 480L449 479z"/>
<path style="fill:#64c99d; stroke:none;" d="M505 479L505 480L516 480L505 479z"/>
<path style="fill:#3e48fd; stroke:none;" d="M516 479L516 480L528 480L516 479M529 479L530 482L531 482L529 479z"/>
<path style="fill:#64c99d; stroke:none;" d="M530 479L531 480L530 479M607 479L607 480L617 480L607 479z"/>
<path style="fill:#3e48fd; stroke:none;" d="M617 479L617 480L637 480L617 479z"/>
<path style="fill:#64c99d; stroke:none;" d="M637 479L637 480L641 480L637 479z"/>
<path style="fill:#3e48fd; stroke:none;" d="M686.333 479.667L686.667 480.333L686.333 479.667M709 479L709 484L710 484L709 479M784 479L784 480L787 480L784 479z"/>
<path style="fill:#64c99d; stroke:none;" d="M787 479L787 480L790 480L787 479M328 480L329 481L328 480z"/>
<path style="fill:#3e48fd; stroke:none;" d="M355 480L356 481L355 480M416 480L417 481L416 480z"/>
<path style="fill:#64c99d; stroke:none;" d="M417 480L418 481L417 480M443 480L444 481L443 480z"/>
<path style="fill:#3e48fd; stroke:none;" d="M444 480L445 481L444 480z"/>
<path style="fill:#64c99d; stroke:none;" d="M498.667 480.333L499.333 480.667L498.667 480.333z"/>
<path style="fill:#3e48fd; stroke:none;" d="M500 480L500 481L504 481L500 480z"/>
<path style="fill:#64c99d; stroke:none;" d="M553 480L554 481L553 480M557 480L557 481L567 481L557 480z"/>
<path style="fill:#3e48fd; stroke:none;" d="M645 480L645 486L646 486L645 480M791 480L792 481L791 480z"/>
<path style="fill:#64c99d; stroke:none;" d="M792.667 480.333L793.333 480.667L792.667 480.333M234 481L234 482L242 482L234 481z"/>
<path style="fill:#3e48fd; stroke:none;" d="M242.667 481.333L243.333 481.667L242.667 481.333z"/>
<path style="fill:#64c99d; stroke:none;" d="M244 481L244 482L247 482L244 481M329 481L330 482L329 481M353 481L354 482L353 481z"/>
<path style="fill:#3e48fd; stroke:none;" d="M354 481L355 482L354 481M419 481L420 482L419 481z"/>
<path style="fill:#64c99d; stroke:none;" d="M439.667 481.333L440.333 481.667L439.667 481.333z"/>
<path style="fill:#3e48fd; stroke:none;" d="M441.667 481.333L442.333 481.667L441.667 481.333z"/>
<path style="fill:#64c99d; stroke:none;" d="M461 481L461 484L462 484L461 481M497 481L497 490L498 490L497 481M542 481L542 482L548 482L542 481z"/>
<path style="fill:#3e48fd; stroke:none;" d="M548 481L548 482L552 482L548 481M555.667 481.333L556.333 481.667L555.667 481.333M567 481L568 482L567 481z"/>
<path style="fill:#64c99d; stroke:none;" d="M568 481L569 482L568 481M605.333 481.667L605.667 482.333L605.333 481.667M641 481L641 504L642 504L641 481M687 481L688 482L687 481z"/>
<path style="fill:#3e48fd; stroke:none;" d="M795.667 481.333L796.333 481.667L795.667 481.333z"/>
<path style="fill:#64c99d; stroke:none;" d="M797 481L798 482L797 481M229 482L230 483L229 482z"/>
<path style="fill:#3e48fd; stroke:none;" d="M230 482L230 483L234 483L230 482M247.667 482.333L248.333 482.667L247.667 482.333z"/>
<path style="fill:#64c99d; stroke:none;" d="M249 482L250 483L249 482M330 482L331 483L330 482M352 482L353 483L352 482z"/>
<path style="fill:#3e48fd; stroke:none;" d="M420 482L421 483L420 482z"/>
<path style="fill:#64c99d; stroke:none;" d="M421 482L422 483L421 482M436 482L437 483L436 482z"/>
<path style="fill:#3e48fd; stroke:none;" d="M437 482L438 483L437 482z"/>
<path style="fill:#64c99d; stroke:none;" d="M536 482L537 483L536 482z"/>
<path style="fill:#3e48fd; stroke:none;" d="M537 482L537 483L542 483L537 482z"/>
<path style="fill:#64c99d; stroke:none;" d="M569.667 482.333L570.333 482.667L569.667 482.333z"/>
<path style="fill:#3e48fd; stroke:none;" d="M687 482L688 483L687 482M798.667 482.333L799.333 482.667L798.667 482.333z"/>
<path style="fill:#64c99d; stroke:none;" d="M800 482L801 483L800 482M225.667 483.333L226.333 483.667L225.667 483.333z"/>
<path style="fill:#3e48fd; stroke:none;" d="M227.667 483.333L228.333 483.667L227.667 483.333M250 483L251 484L250 483z"/>
<path style="fill:#64c99d; stroke:none;" d="M251 483L252 484L251 483M331 483L332 484L331 483z"/>
<path style="fill:#3e48fd; stroke:none;" d="M351 483L352 484L351 483z"/>
<path style="fill:#64c99d; stroke:none;" d="M422 483L423 484L422 483M433 483L434 484L433 483z"/>
<path style="fill:#3e48fd; stroke:none;" d="M434.667 483.333L435.333 483.667L434.667 483.333z"/>
<path style="fill:#64c99d; stroke:none;" d="M531 483L532 484L531 483M534 483L535 484L534 483z"/>
<path style="fill:#3e48fd; stroke:none;" d="M535 483L536 484L535 483M571.333 483.667L571.667 484.333L571.333 483.667M605 483L606 484L605 483M801 483L802 484L801 483z"/>
<path style="fill:#64c99d; stroke:none;" d="M802 483L803 484L802 483M222.667 484.333L223.333 484.667L222.667 484.333z"/>
<path style="fill:#3e48fd; stroke:none;" d="M224 484L225 485L224 484z"/>
<path style="fill:#64c99d; stroke:none;" d="M332 484L333 485L332 484M349 484L350 485L349 484z"/>
<path style="fill:#3e48fd; stroke:none;" d="M350 484L351 485L350 484M423 484L424 485L423 484z"/>
<path style="fill:#64c99d; stroke:none;" d="M430 484L431 485L430 484z"/>
<path style="fill:#3e48fd; stroke:none;" d="M431.667 484.333L432.333 484.667L431.667 484.333M461 484L461 488L462 488L461 484M531.667 484.333L532.333 484.667L531.667 484.333z"/>
<path style="fill:#64c99d; stroke:none;" d="M605 484L606 485L605 484M688 484L689 485L688 484M709 484L709 491L710 491L709 484z"/>
<path style="fill:#3e48fd; stroke:none;" d="M804 484L805 485L804 484z"/>
<path style="fill:#64c99d; stroke:none;" d="M805 484L806 485L805 484M218.667 485.333L219.333 485.667L218.667 485.333z"/>
<path style="fill:#3e48fd; stroke:none;" d="M220.667 485.333L221.333 485.667L220.667 485.333M252 485L253 486L252 485M332 485L333 486L332 485M425 485L426 486L425 485z"/>
<path style="fill:#64c99d; stroke:none;" d="M426.667 485.333L427.333 485.667L426.667 485.333z"/>
<path style="fill:#3e48fd; stroke:none;" d="M428 485L429 486L428 485z"/>
<path style="fill:#64c99d; stroke:none;" d="M571 485L571 515L572 515L571 485z"/>
<path style="fill:#3e48fd; stroke:none;" d="M605 485L605 488L606 488L605 485M688 485L689 486L688 485M807 485L808 486L807 485z"/>
<path style="fill:#64c99d; stroke:none;" d="M808 485L809 486L808 485M215 486L216 487L215 486z"/>
<path style="fill:#3e48fd; stroke:none;" d="M216 486L217 487L216 486M253 486L254 487L253 486M333.333 486.667L333.667 487.333L333.333 486.667z"/>
<path style="fill:#64c99d; stroke:none;" d="M347 486L348 487L347 486z"/>
<path style="fill:#3e48fd; stroke:none;" d="M809 486L810 487L809 486z"/>
<path style="fill:#64c99d; stroke:none;" d="M810 486L811 487L810 486M211.667 487.333L212.333 487.667L211.667 487.333z"/>
<path style="fill:#3e48fd; stroke:none;" d="M213 487L214 488L213 487z"/>
<path style="fill:#64c99d; stroke:none;" d="M346 487L347 488L346 487M644 487L644 498L645 498L644 487M689 487L690 488L689 487z"/>
<path style="fill:#3e48fd; stroke:none;" d="M811 487L812 488L811 487z"/>
<path style="fill:#64c99d; stroke:none;" d="M812 487L813 488L812 487M209 488L210 489L209 488z"/>
<path style="fill:#3e48fd; stroke:none;" d="M210 488L211 489L210 488M254.333 488.667L254.667 489.333L254.333 488.667z"/>
<path style="fill:#64c99d; stroke:none;" d="M334 488L335 489L334 488M345 488L346 489L345 488M604 488L604 492L605 492L604 488z"/>
<path style="fill:#3e48fd; stroke:none;" d="M689.333 488.667L689.667 489.333L689.333 488.667M813 488L814 489L813 488z"/>
<path style="fill:#64c99d; stroke:none;" d="M207 489L208 490L207 489z"/>
<path style="fill:#3e48fd; stroke:none;" d="M208 489L209 490L208 489M334.333 489.667L334.667 490.333L334.333 489.667z"/>
<path style="fill:#64c99d; stroke:none;" d="M344 489L345 490L344 489M462 489L462 492L463 492L462 489z"/>
<path style="fill:#3e48fd; stroke:none;" d="M814 489L815 490L814 489z"/>
<path style="fill:#64c99d; stroke:none;" d="M815 489L816 490L815 489M205 490L206 491L205 490z"/>
<path style="fill:#3e48fd; stroke:none;" d="M206 490L207 491L206 490z"/>
<path style="fill:#64c99d; stroke:none;" d="M255 490L256 491L255 490M343 490L344 491L343 490z"/>
<path style="fill:#3e48fd; stroke:none;" d="M497 490L497 509L498 509L497 490z"/>
<path style="fill:#64c99d; stroke:none;" d="M690 490L691 491L690 490z"/>
<path style="fill:#3e48fd; stroke:none;" d="M816 490L817 491L816 490z"/>
<path style="fill:#64c99d; stroke:none;" d="M202.667 491.333L203.333 491.667L202.667 491.333z"/>
<path style="fill:#3e48fd; stroke:none;" d="M204 491L205 492L204 491M255.333 491.667L255.667 492.333L255.333 491.667z"/>
<path style="fill:#64c99d; stroke:none;" d="M335.333 491.667L335.667 492.333L335.333 491.667M342 491L343 492L342 491z"/>
<path style="fill:#3e48fd; stroke:none;" d="M710 491L710 498L711 498L710 491z"/>
<path style="fill:#64c99d; stroke:none;" d="M818 491L819 492L818 491M200 492L201 493L200 492z"/>
<path style="fill:#3e48fd; stroke:none;" d="M201 492L202 493L201 492M462 492L462 497L463 497L462 492M604.333 492.667L604.667 493.333L604.333 492.667M691 492L692 493L691 492M820 492L821 493L820 492z"/>
<path style="fill:#64c99d; stroke:none;" d="M821 492L822 493L821 492M197 493L198 494L197 493z"/>
<path style="fill:#3e48fd; stroke:none;" d="M198.667 493.333L199.333 493.667L198.667 493.333z"/>
<path style="fill:#64c99d; stroke:none;" d="M256 493L256 496L257 496L256 493M336 493L337 494L336 493z"/>
<path style="fill:#3e48fd; stroke:none;" d="M341 493L342 494L341 493z"/>
<path style="fill:#64c99d; stroke:none;" d="M692 493L693 494L692 493z"/>
<path style="fill:#3e48fd; stroke:none;" d="M822 493L823 494L822 493z"/>
<path style="fill:#64c99d; stroke:none;" d="M823 493L824 494L823 493M195 494L196 495L195 494z"/>
<path style="fill:#3e48fd; stroke:none;" d="M196 494L197 495L196 494z"/>
<path style="fill:#64c99d; stroke:none;" d="M340 494L341 495L340 494M824 494L825 495L824 494M194 495L195 496L194 495z"/>
<path style="fill:#3e48fd; stroke:none;" d="M337 495L338 496L337 495M340 495L341 496L340 495z"/>
<path style="fill:#64c99d; stroke:none;" d="M603.333 495.667L603.667 496.333L603.333 495.667M693 495L694 496L693 495M826 495L827 496L826 495M192 496L193 497L192 496z"/>
<path style="fill:#3e48fd; stroke:none;" d="M193 496L194 497L193 496M256 496L256 510L257 510L256 496z"/>
<path style="fill:#64c99d; stroke:none;" d="M338.667 496.333L339.333 496.667L338.667 496.333M694 496L695 497L694 496M827 496L828 497L827 496M191 497L192 498L191 497M463 497L463 501L464 501L463 497z"/>
<path style="fill:#3e48fd; stroke:none;" d="M603 497L603 500L604 500L603 497z"/>
<path style="fill:#64c99d; stroke:none;" d="M695 497L696 498L695 497M828 497L829 498L828 497z"/>
<path style="fill:#3e48fd; stroke:none;" d="M190 498L191 499L190 498M644 498L644 507L645 507L644 498z"/>
<path style="fill:#64c99d; stroke:none;" d="M696 498L697 499L696 498M710 498L710 507L711 507L710 498z"/>
<path style="fill:#3e48fd; stroke:none;" d="M829 498L830 499L829 498z"/>
<path style="fill:#64c99d; stroke:none;" d="M830 498L831 499L830 498z"/>
<path style="fill:#3e48fd; stroke:none;" d="M189 499L190 500L189 499z"/>
<path style="fill:#64c99d; stroke:none;" d="M697 499L698 500L697 499M831 499L833 501L831 499z"/>
<path style="fill:#3e48fd; stroke:none;" d="M188 500L189 501L188 500M831 500L832 501L831 500M187 501L188 502L187 501M463 501L463 504L464 504L463 501z"/>
<path style="fill:#64c99d; stroke:none;" d="M602 501L602 504L603 504L602 501z"/>
<path style="fill:#3e48fd; stroke:none;" d="M698 501L699 502L698 501z"/>
<path style="fill:#64c99d; stroke:none;" d="M833 501L834 502L833 501M185 502L186 503L185 502z"/>
<path style="fill:#3e48fd; stroke:none;" d="M186 502L187 503L186 502z"/>
<path style="fill:#64c99d; stroke:none;" d="M699 502L700 503L699 502z"/>
<path style="fill:#3e48fd; stroke:none;" d="M834 503L835 504L834 503z"/>
<path style="fill:#64c99d; stroke:none;" d="M835 503L836 504L835 503z"/>
<path style="fill:#3e48fd; stroke:none;" d="M184 504L185 505L184 504M602 504L602 507L603 507L602 504M640 504L640 512L641 512L640 504M700 504L701 505L700 504M183 505L184 506L183 505z"/>
<path style="fill:#64c99d; stroke:none;" d="M464 505L464 510L465 510L464 505M701 505L702 506L701 505z"/>
<path style="fill:#3e48fd; stroke:none;" d="M836 505L837 506L836 505M182 506L183 507L182 506M837 506L838 507L837 506z"/>
<path style="fill:#64c99d; stroke:none;" d="M181 507L182 508L181 507z"/>
<path style="fill:#3e48fd; stroke:none;" d="M309 507L304 513L309 507z"/>
<path style="fill:#64c99d; stroke:none;" d="M702 507L703 508L702 507z"/>
<path style="fill:#3e48fd; stroke:none;" d="M711.333 507.667L711.667 508.333L711.333 507.667z"/>
<path style="fill:#64c99d; stroke:none;" d="M838 507L839 508L838 507M309 508L310 509L309 508M601 508L601 511L602 511L601 508M643 508L643 513L644 513L643 508M839 508L840 509L839 508z"/>
<path style="fill:#3e48fd; stroke:none;" d="M180 509L181 510L180 509z"/>
<path style="fill:#64c99d; stroke:none;" d="M380 509L380 510L388 510L380 509z"/>
<path style="fill:#3e48fd; stroke:none;" d="M388.667 509.333L389.333 509.667L388.667 509.333M703 509L704 510L703 509M839 509L840 510L839 509z"/>
<path style="fill:#64c99d; stroke:none;" d="M178 510L179 511L178 510z"/>
<path style="fill:#3e48fd; stroke:none;" d="M179 510L180 511L179 510z"/>
<path style="fill:#64c99d; stroke:none;" d="M256 510L257 511L256 510z"/>
<path style="fill:#3e48fd; stroke:none;" d="M377 510L378 511L377 510z"/>
<path style="fill:#64c99d; stroke:none;" d="M378 510L379 511L378 510z"/>
<path style="fill:#fdfdfd; stroke:none;" d="M379.105 510.742C373.461 513.137 373.026 520.785 373.001 526C372.94 538.53 380.133 548.249 393.907 541.995C410.593 534.417 398.345 502.581 379.105 510.742z"/>
<path style="fill:#64c99d; stroke:none;" d="M390.667 510.333L391.333 510.667L390.667 510.333z"/>
<path style="fill:#3e48fd; stroke:none;" d="M392 510L393 511L392 510M464.333 510.667L464.667 511.333L464.333 510.667z"/>
<path style="fill:#64c99d; stroke:none;" d="M496 510L496 517L497 517L496 510M704 510L705 511L704 510z"/>
<path style="fill:#3e48fd; stroke:none;" d="M711 510L711 514L712 514L711 510z"/>
<path style="fill:#64c99d; stroke:none;" d="M840 510L841 511L840 510M255 511L256 512L255 511M376 511L377 512L376 511M393 511L394 512L393 511z"/>
<path style="fill:#3e48fd; stroke:none;" d="M394 511L395 512L394 511M601.333 511.667L601.667 512.333L601.333 511.667M704 511L705 512L704 511M840 511L841 512L840 511M177 512L178 513L177 512M233 512L233 513L253 513L233 512z"/>
<path style="fill:#64c99d; stroke:none;" d="M253.667 512.333L254.333 512.667L253.667 512.333z"/>
<path style="fill:#3e48fd; stroke:none;" d="M375 512L376 513L375 512z"/>
<path style="fill:#64c99d; stroke:none;" d="M395 512L396 513L395 512M465 512L465 516L466 516L465 512M640 512L640 521L641 521L640 512M705 512L706 513L705 512M841 512L842 513L841 512M176 513L177 514L176 513z"/>
<path style="fill:#3e48fd; stroke:none;" d="M229 513L230 514L229 513z"/>
<path style="fill:#64c99d; stroke:none;" d="M230 513L230 514L233 514L230 513M375 513L376 514L375 513z"/>
<path style="fill:#3e48fd; stroke:none;" d="M397 513L398 514L397 513z"/>
<path style="fill:#64c99d; stroke:none;" d="M600 513L600 516L601 516L600 513z"/>
<path style="fill:#3e48fd; stroke:none;" d="M643 513L643 521L644 521L643 513z"/>
<path style="fill:#64c99d; stroke:none;" d="M706 513L707 514L706 513z"/>
<path style="fill:#3e48fd; stroke:none;" d="M841 513L842 514L841 513M176 514L177 515L176 514M226 514L227 515L226 514z"/>
<path style="fill:#64c99d; stroke:none;" d="M227 514L228 515L227 514z"/>
<path style="fill:#3e48fd; stroke:none;" d="M374 514L375 515L374 514M398 514L399 515L398 514z"/>
<path style="fill:#64c99d; stroke:none;" d="M474 514C472.442 518.26 471.929 521.326 476 524C477.091 520.023 476.736 517.147 474 514M711 514L711 520L712 520L711 514M842 514L843 515L842 514z"/>
<path style="fill:#3e48fd; stroke:none;" d="M224 515L225 516L224 515z"/>
<path style="fill:#64c99d; stroke:none;" d="M225 515L226 516L225 515M374 515L375 516L374 515M398 515L399 516L398 515z"/>
<path style="fill:#3e48fd; stroke:none;" d="M571 515L571 526L572 526L571 515M707 515L708 516L707 515z"/>
<path style="fill:#64c99d; stroke:none;" d="M843 515L844 516L843 515M175 516L176 517L175 516z"/>
<path style="fill:#3e48fd; stroke:none;" d="M222 516L223 517L222 516M399 516L400 517L399 516M465 516L465 519L466 519L465 516M600 516L601 517L600 516M708 516L709 517L708 516M785.667 516.333L786.333 516.667L785.667 516.333M843 516L844 517L843 516M175 517L176 518L175 517z"/>
<path style="fill:#64c99d; stroke:none;" d="M221 517L222 518L221 517M229 517L229 518L237 518L237 519L227 520L227 521L229 522L226 526L233 525L233 524L231 523L232 520L238 521L238 517L229 517z"/>
<path style="fill:#3e48fd; stroke:none;" d="M373 517L374 518L373 517z"/>
<path style="fill:#64c99d; stroke:none;" d="M399 517L400 518L399 517z"/>
<path style="fill:#3e48fd; stroke:none;" d="M496 517L496 522L497 522L496 517z"/>
<path style="fill:#64c99d; stroke:none;" d="M709 517L710 518L709 517M784 517L784 521L785 521L784 517z"/>
<path style="fill:#fdfdfd; stroke:none;" d="M785 517L779 550C786.179 549.433 795.442 547.971 800.121 541.787C808.615 530.56 795.487 518.806 785 517z"/>
<path style="fill:#64c99d; stroke:none;" d="M788 517L789 518L788 517z"/>
<path style="fill:#3e48fd; stroke:none;" d="M789 517L790 518L789 517z"/>
<path style="fill:#64c99d; stroke:none;" d="M844 517L845 518L844 517M174.333 518.667L174.667 519.333L174.333 518.667z"/>
<path style="fill:#3e48fd; stroke:none;" d="M219 518L220 519L219 518z"/>
<path style="fill:#64c99d; stroke:none;" d="M220 518L221 519L220 518M226 518L227 519L226 518z"/>
<path style="fill:#3e48fd; stroke:none;" d="M227 518L228 519L227 518z"/>
<path style="fill:#040304; stroke:none;" d="M223 522L237 519C232.061 516.928 226.588 518.117 223 522z"/>
<path style="fill:#64c99d; stroke:none;" d="M373 518L374 519L373 518z"/>
<path style="fill:#3e48fd; stroke:none;" d="M400 518L401 519L400 518z"/>
<path style="fill:#64c99d; stroke:none;" d="M599 518L600 519L599 518M790.667 518.333L791.333 518.667L790.667 518.333z"/>
<path style="fill:#3e48fd; stroke:none;" d="M844 518L845 519L844 518M218 519L219 520L218 519z"/>
<path style="fill:#64c99d; stroke:none;" d="M224 519L225 520L224 519z"/>
<path style="fill:#3e48fd; stroke:none;" d="M230 519L231 520L230 519z"/>
<path style="fill:#64c99d; stroke:none;" d="M400.333 519.667L400.667 520.333L400.333 519.667M466 519L466 523L467 523L466 519z"/>
<path style="fill:#3e48fd; stroke:none;" d="M599.333 519.667L599.667 520.333L599.333 519.667z"/>
<path style="fill:#64c99d; stroke:none;" d="M793 519L794 520L793 519z"/>
<path style="fill:#3e48fd; stroke:none;" d="M794 519L795 520L794 519z"/>
<path style="fill:#64c99d; stroke:none;" d="M845.333 519.667L845.667 520.333L845.333 519.667z"/>
<path style="fill:#3e48fd; stroke:none;" d="M174 520L175 521L174 520M217 520L218 521L217 520M223 520L224 521L223 520M226 520L227 521L226 520M372.333 520.667L372.667 521.333L372.333 520.667M711 520L712 521L711 520M795 520L796 521L795 520M216 521L217 522L216 521M222 521L219 526L222 521z"/>
<path style="fill:#64c99d; stroke:none;" d="M224 521L225 522L224 521z"/>
<path style="fill:#3e48fd; stroke:none;" d="M230 521L229 523L230 521M231 524L235 521L231 524z"/>
<path style="fill:#64c99d; stroke:none;" d="M235 521L234 523L236 523L235 521z"/>
<path style="fill:#3e48fd; stroke:none;" d="M401.333 521.667L401.667 522.333L401.333 521.667M783 521L783 525L784 525L783 521z"/>
<path style="fill:#64c99d; stroke:none;" d="M796 521L797 522L796 521z"/>
<path style="fill:#3e48fd; stroke:none;" d="M845 521L846 522L845 521z"/>
<path style="fill:#64c99d; stroke:none;" d="M173.333 522.667L173.667 523.333L173.333 522.667z"/>
<path style="fill:#3e48fd; stroke:none;" d="M215 522L214 524L215 522z"/>
<path style="fill:#64c99d; stroke:none;" d="M221 522L222 523L221 522M223 522L224 523L223 522M372 522L372 534L373 534L372 522M598.333 522.667L598.667 523.333L598.333 522.667z"/>
<path style="fill:#3e48fd; stroke:none;" d="M639 522L639 526L640 526L639 522z"/>
<path style="fill:#64c99d; stroke:none;" d="M642 522L642 531L643 531L642 522z"/>
<path style="fill:#3e48fd; stroke:none;" d="M797 522L798 523L797 522z"/>
<path style="fill:#64c99d; stroke:none;" d="M846.333 522.667L846.667 523.333L846.333 522.667M215 523L216 524L215 523z"/>
<path style="fill:#3e48fd; stroke:none;" d="M225 526L226 526L228 524L225 526z"/>
<path style="fill:#64c99d; stroke:none;" d="M401 523L401 528L402 528L401 523z"/>
<path style="fill:#3e48fd; stroke:none;" d="M466 523L466 526L467 526L466 523z"/>
<path style="fill:#64c99d; stroke:none;" d="M495 523L495 528L496 528L495 523z"/>
<path style="fill:#3e48fd; stroke:none;" d="M798 523L799 524L798 523M173 524L174 525L173 524z"/>
<path style="fill:#64c99d; stroke:none;" d="M214 524L215 525L214 524M221 524L222 525L221 524M224.333 524.667L224.667 525.333L224.333 524.667z"/>
<path style="fill:#040304; stroke:none;" d="M226 524L227 525L226 524z"/>
<path style="fill:#3e48fd; stroke:none;" d="M598 524L599 525L598 524M799 524L800 525L799 524M846.333 524.667L846.667 525.333L846.333 524.667z"/>
<path style="fill:#64c99d; stroke:none;" d="M172 525L172 528L173 528L172 525M213 525L214 526L213 525M237 525L235 529L237 526L238 526C242.419 532.816 266.218 529 274 529L274 528C263.106 528 246.271 531.263 237 525z"/>
<path style="fill:#3e48fd; stroke:none;" d="M332 525L333 526L332 525z"/>
<path style="fill:#64c99d; stroke:none;" d="M333 525L334 526L333 525z"/>
<path style="fill:#3e48fd; stroke:none;" d="M334 525L334 537L335 537L334 525z"/>
<path style="fill:#64c99d; stroke:none;" d="M783 525L783 528L784 528L783 525z"/>
<path style="fill:#3e48fd; stroke:none;" d="M800 525L801 526L800 525M212 526L213 527L212 526z"/>
<path style="fill:#64c99d; stroke:none;" d="M219.667 526.333L220.333 526.667L219.667 526.333z"/>
<path style="fill:#040304; stroke:none;" d="M237 526L238 527L237 526z"/>
<path style="fill:#3e48fd; stroke:none;" d="M330 526L331 527L330 526z"/>
<path style="fill:#64c99d; stroke:none;" d="M331 526L332 527L331 526M467 526L468 527L467 526M597 526L597 529L598 529L597 526M639 526L639 532L640 532L639 526M800 526L801 527L800 526M212 527L213 528L212 527z"/>
<path style="fill:#3e48fd; stroke:none;" d="M237 527L237 529L239 529L237 527M329 527L330 528L329 527M467 527L468 528L467 527M801 527L802 528L801 527z"/>
<path style="fill:#64c99d; stroke:none;" d="M847.333 527.667L847.667 528.333L847.333 527.667z"/>
<path style="fill:#3e48fd; stroke:none;" d="M172 528L172 531L173 531L172 528M211 528L212 529L211 528M327 528L328 529L327 528z"/>
<path style="fill:#64c99d; stroke:none;" d="M328 528L329 529L328 528z"/>
<path style="fill:#3e48fd; stroke:none;" d="M401 528L401 531L402 531L401 528z"/>
<path style="fill:#64c99d; stroke:none;" d="M468.333 528.667L468.667 529.333L468.333 528.667z"/>
<path style="fill:#3e48fd; stroke:none;" d="M495 528L495 531L496 531L495 528M782 528L782 531L783 531L782 528z"/>
<path style="fill:#64c99d; stroke:none;" d="M801 528L802 529L801 528M229.667 529.333L230.333 529.667L229.667 529.333z"/>
<path style="fill:#3e48fd; stroke:none;" d="M231 529L231 530L235 530L231 529z"/>
<path style="fill:#64c99d; stroke:none;" d="M326 529L327 530L326 529z"/>
<path style="fill:#3e48fd; stroke:none;" d="M597 529L597 532L598 532L597 529M847 529L847 544L848 544L847 529M210 530L211 531L210 530z"/>
<path style="fill:#64c99d; stroke:none;" d="M226 530L227 531L226 530z"/>
<path style="fill:#3e48fd; stroke:none;" d="M227.667 530.333L228.333 530.667L227.667 530.333M324 530L325 531L324 530z"/>
<path style="fill:#64c99d; stroke:none;" d="M325 530L326 531L325 530z"/>
<path style="fill:#3e48fd; stroke:none;" d="M468 530L469 531L468 530z"/>
<path style="fill:#64c99d; stroke:none;" d="M572 530L572 539L573 539L572 530z"/>
<path style="fill:#3e48fd; stroke:none;" d="M802 530L803 531L802 530z"/>
<path style="fill:#64c99d; stroke:none;" d="M210 531L211 532L210 531z"/>
<path style="fill:#3e48fd; stroke:none;" d="M224 531L225 532L224 531M323 531L324 532L323 531z"/>
<path style="fill:#64c99d; stroke:none;" d="M469.333 531.667L469.667 532.333L469.333 531.667z"/>
<path style="fill:#3e48fd; stroke:none;" d="M642 531L642 547L643 547L642 531z"/>
<path style="fill:#64c99d; stroke:none;" d="M782 531L782 534L783 534L782 531M802.333 531.667L802.667 532.333L802.333 531.667M171 532L171 543L172 543L171 532z"/>
<path style="fill:#3e48fd; stroke:none;" d="M209 532L209 536L210 536L209 532z"/>
<path style="fill:#64c99d; stroke:none;" d="M222 532L223 533L222 532M322 532L323 533L322 532M400.333 532.667L400.667 533.333L400.333 532.667M494 532L494 536L495 536L494 532z"/>
<path style="fill:#3e48fd; stroke:none;" d="M221 533L222 534L221 533z"/>
<path style="fill:#64c99d; stroke:none;" d="M321 533L322 534L321 533z"/>
<path style="fill:#3e48fd; stroke:none;" d="M469 533L470 534L469 533z"/>
<path style="fill:#64c99d; stroke:none;" d="M596 533L596 536L597 536L596 533z"/>
<path style="fill:#3e48fd; stroke:none;" d="M638 533L638 537L639 537L638 533z"/>
<path style="fill:#64c99d; stroke:none;" d="M220 534L221 535L220 534M320 534L321 535L320 534z"/>
<path style="fill:#3e48fd; stroke:none;" d="M372 534L373 535L372 534M400.333 534.667L400.667 535.333L400.333 534.667M679.667 534.333L680.333 534.667L679.667 534.333M781.333 534.667L781.667 535.333L781.333 534.667M803.333 534.667L803.667 535.333L803.333 534.667M220 535L221 536L220 535M319 535L320 536L319 535z"/>
<path style="fill:#64c99d; stroke:none;" d="M470 535L471 536L470 535M679 535L679 538L681 535L679 535M209 536L210 537L209 536M219.333 536.667L219.667 537.333L219.333 536.667M320 536L321 537L320 536M373 536L374 537L373 536M399 536L400 537L399 536z"/>
<path style="fill:#3e48fd; stroke:none;" d="M470 536L471 537L470 536M494.333 536.667L494.667 537.333L494.333 536.667M596.333 536.667L596.667 537.333L596.333 536.667z"/>
<path style="fill:#64c99d; stroke:none;" d="M781 536L781 540L782 540L781 536M802.333 536.667L802.667 537.333L802.333 536.667z"/>
<path style="fill:#3e48fd; stroke:none;" d="M209 537L209 541L210 541L209 537z"/>
<path style="fill:#64c99d; stroke:none;" d="M334 537L334 541L335 541L334 537z"/>
<path style="fill:#3e48fd; stroke:none;" d="M373 537L374 538L373 537M399 537L400 538L399 537z"/>
<path style="fill:#64c99d; stroke:none;" d="M471 537L472 538L471 537M638 537L638 541L639 541L638 537z"/>
<path style="fill:#3e48fd; stroke:none;" d="M219.333 538.667L219.667 539.333L219.333 538.667M321 538L322 539L321 538z"/>
<path style="fill:#64c99d; stroke:none;" d="M374 538L375 539L374 538z"/>
<path style="fill:#3e48fd; stroke:none;" d="M398 538L399 539L398 538z"/>
<path style="fill:#64c99d; stroke:none;" d="M472 538L473 539L472 538z"/>
<path style="fill:#3e48fd; stroke:none;" d="M679 538L679 554L680 554L679 538M681 538L682 539L681 538M802 538L803 539L802 538M374 539L375 540L374 539M397 539L398 540L397 539M472 539L473 540L472 539z"/>
<path style="fill:#64c99d; stroke:none;" d="M493 539L494 540L493 539z"/>
<path style="fill:#3e48fd; stroke:none;" d="M572 539L572 543L573 543L572 539z"/>
<path style="fill:#64c99d; stroke:none;" d="M595 539L595 542L596 542L595 539M681 539L682 540L681 539z"/>
<path style="fill:#3e48fd; stroke:none;" d="M322 540L323 541L322 540z"/>
<path style="fill:#64c99d; stroke:none;" d="M375 540L376 541L375 540M473 540L474 541L473 540z"/>
<path style="fill:#3e48fd; stroke:none;" d="M780 540L781 541L780 540M801 540L802 541L801 540z"/>
<path style="fill:#64c99d; stroke:none;" d="M323 541L324 542L323 541M376 541L377 542L376 541M395 541L396 542L395 541z"/>
<path style="fill:#3e48fd; stroke:none;" d="M396 541L397 542L396 541z"/>
<path style="fill:#64c99d; stroke:none;" d="M474 541L475 542L474 541z"/>
<path style="fill:#3e48fd; stroke:none;" d="M492 541L493 542L492 541M637.333 541.667L637.667 542.333L637.333 541.667M682 541L683 542L682 541z"/>
<path style="fill:#64c99d; stroke:none;" d="M780 541L781 542L780 541M800 541L801 542L800 541M210 542L211 543L210 542z"/>
<path style="fill:#3e48fd; stroke:none;" d="M219 542L220 543L219 542M335 542L336 543L335 542M377 542L378 543L377 542z"/>
<path style="fill:#64c99d; stroke:none;" d="M378 542L379 543L378 542M393 542L394 543L393 542z"/>
<path style="fill:#3e48fd; stroke:none;" d="M394 542L395 543L394 542M475 542L476 543L475 542z"/>
<path style="fill:#64c99d; stroke:none;" d="M489 542L490 543L489 542z"/>
<path style="fill:#3e48fd; stroke:none;" d="M490 542L491 543L490 542M595 542L595 545L596 545L595 542z"/>
<path style="fill:#64c99d; stroke:none;" d="M682 542L683 543L682 542z"/>
<path style="fill:#3e48fd; stroke:none;" d="M800 542L801 543L800 542M172.333 543.667L172.667 544.333L172.333 543.667M210 543L211 544L210 543z"/>
<path style="fill:#64c99d; stroke:none;" d="M219 543L220 544L219 543z"/>
<path style="fill:#3e48fd; stroke:none;" d="M324 543L326 545L324 543z"/>
<path style="fill:#64c99d; stroke:none;" d="M325 543L326 544L325 543M335.333 543.667L335.667 544.333L335.333 543.667z"/>
<path style="fill:#3e48fd; stroke:none;" d="M380 543L381 544L380 543z"/>
<path style="fill:#64c99d; stroke:none;" d="M381 543L381 544L384 544L381 543M387 543L387 544L391 544L387 543z"/>
<path style="fill:#3e48fd; stroke:none;" d="M391 543L392 544L391 543M477 543L478 544L477 543z"/>
<path style="fill:#64c99d; stroke:none;" d="M486.667 543.333L487.333 543.667L486.667 543.333z"/>
<path style="fill:#3e48fd; stroke:none;" d="M488 543L489 544L488 543z"/>
<path style="fill:#64c99d; stroke:none;" d="M637 543L637 547L638 547L637 543z"/>
<path style="fill:#3e48fd; stroke:none;" d="M779.333 543.667L779.667 544.333L779.333 543.667M799 543L800 544L799 543z"/>
<path style="fill:#64c99d; stroke:none;" d="M212 544L213 545L212 544z"/>
<path style="fill:#3e48fd; stroke:none;" d="M220 544L221 545L220 544M384 544L384 545L387 545L384 544M479 544L480 545L479 544z"/>
<path style="fill:#64c99d; stroke:none;" d="M480 544L480 545L483 545L480 544z"/>
<path style="fill:#3e48fd; stroke:none;" d="M483 544L483 545L486 545L483 544z"/>
<path style="fill:#64c99d; stroke:none;" d="M573.333 544.667L573.667 545.333L573.333 544.667z"/>
<path style="fill:#3e48fd; stroke:none;" d="M683 544L684 545L683 544z"/>
<path style="fill:#64c99d; stroke:none;" d="M797 544L798 545L797 544z"/>
<path style="fill:#3e48fd; stroke:none;" d="M798 544L799 545L798 544z"/>
<path style="fill:#64c99d; stroke:none;" d="M847 544L848 545L847 544M172 545L172 548L173 548L172 545z"/>
<path style="fill:#3e48fd; stroke:none;" d="M213 545L214 546L213 545z"/>
<path style="fill:#64c99d; stroke:none;" d="M214 545L215 546L214 545z"/>
<path style="fill:#3e48fd; stroke:none;" d="M221 545L222 546L221 545M326 545L327 546L326 545M336.333 545.667L336.667 546.333L336.333 545.667z"/>
<path style="fill:#64c99d; stroke:none;" d="M594.333 545.667L594.667 546.333L594.333 545.667M683.333 545.667L683.667 546.333L683.333 545.667M779 545L779 548L780 548L779 545M795 545L796 546L795 545z"/>
<path style="fill:#3e48fd; stroke:none;" d="M215 546L216 547L215 546z"/>
<path style="fill:#64c99d; stroke:none;" d="M216 546L217 547L216 546M221 546L222 547L221 546M327 546L328 547L327 546z"/>
<path style="fill:#3e48fd; stroke:none;" d="M573.333 546.667L573.667 547.333L573.333 546.667z"/>
<path style="fill:#64c99d; stroke:none;" d="M793 546L794 547L793 546z"/>
<path style="fill:#3e48fd; stroke:none;" d="M794 546L795 547L794 546M846.333 546.667L846.667 547.333L846.333 546.667M217 547L218 548L217 547z"/>
<path style="fill:#64c99d; stroke:none;" d="M218 547L219 548L218 547M222 547L223 548L222 547M328 547L329 548L328 547M336 547L337 548L336 547z"/>
<path style="fill:#3e48fd; stroke:none;" d="M594.333 547.667L594.667 548.333L594.333 547.667M636 547L637 548L636 547M684 547L685 548L684 547M792 547L793 548L792 547M173 548L173 551L174 551L173 548M220 548L220 549L224 549L220 548M337.333 548.667L337.667 549.333L337.333 548.667z"/>
<path style="fill:#64c99d; stroke:none;" d="M574.333 548.667L574.667 549.333L574.333 548.667M636 548L636 551L637 551L636 548M684 548L685 549L684 548M789 548L790 549L789 548z"/>
<path style="fill:#3e48fd; stroke:none;" d="M790 548L791 549L790 548z"/>
<path style="fill:#64c99d; stroke:none;" d="M846 548L846 551L847 551L846 548M329 549L330 550L329 549z"/>
<path style="fill:#3e48fd; stroke:none;" d="M778 549L779 550L778 549z"/>
<path style="fill:#64c99d; stroke:none;" d="M783 549L783 550L786 550L783 549z"/>
<path style="fill:#3e48fd; stroke:none;" d="M786.667 549.333L787.333 549.667L786.667 549.333z"/>
<path style="fill:#64c99d; stroke:none;" d="M330 550L331 551L330 550M337 550L338 551L337 550z"/>
<path style="fill:#3e48fd; stroke:none;" d="M574 550L575 551L574 550M593 550L594 551L593 550M685 550L686 551L685 550M779 550L779 551L783 551L779 550z"/>
<path style="fill:#64c99d; stroke:none;" d="M173.333 551.667L173.667 552.333L173.333 551.667z"/>
<path style="fill:#3e48fd; stroke:none;" d="M275 551L276 552L275 551z"/>
<path style="fill:#64c99d; stroke:none;" d="M331 551L332 552L331 551z"/>
<path style="fill:#3e48fd; stroke:none;" d="M338.333 551.667L338.667 552.333L338.333 551.667M532 551L531 553L532 551z"/>
<path style="fill:#64c99d; stroke:none;" d="M575 551L576 552L575 551M590 551L591 552L590 551z"/>
<path style="fill:#3e48fd; stroke:none;" d="M591.667 551.333L592.333 551.667L591.667 551.333M635 551L635 554L636 554L635 551z"/>
<path style="fill:#64c99d; stroke:none;" d="M685 551L686 552L685 551z"/>
<path style="fill:#3e48fd; stroke:none;" d="M845.333 551.667L845.667 552.333L845.333 551.667M273 552L274 553L273 552z"/>
<path style="fill:#64c99d; stroke:none;" d="M275 552L275 558L276 558L275 552z"/>
<path style="fill:#3e48fd; stroke:none;" d="M331 552L332 553L331 552z"/>
<path style="fill:#64c99d; stroke:none;" d="M532 552L533 553L532 552z"/>
<path style="fill:#3e48fd; stroke:none;" d="M575 552L576 553L575 552z"/>
<path style="fill:#64c99d; stroke:none;" d="M586 552L586 553L589 553L586 552z"/>
<path style="fill:#3e48fd; stroke:none;" d="M589 552L590 553L589 552M686 552L687 553L686 552M174 553L174 556L175 556L174 553z"/>
<path style="fill:#64c99d; stroke:none;" d="M273 553L274 554L273 553M332 553L333 554L332 553M338 553L339 554L338 553M531.333 553.667L531.667 554.333L531.333 553.667M576 553L577 554L576 553M579 553L579 554L583 554L579 553z"/>
<path style="fill:#3e48fd; stroke:none;" d="M583.667 553.333L584.333 553.667L583.667 553.333M642 553L642 562L643 562L642 553z"/>
<path style="fill:#64c99d; stroke:none;" d="M686 553L687 554L686 553M845 553L846 554L845 553z"/>
<path style="fill:#3e48fd; stroke:none;" d="M272 554L273 555L272 554M305 554L305 557L306 557L305 554z"/>
<path style="fill:#64c99d; stroke:none;" d="M306 554L307 555L306 554z"/>
<path style="fill:#3e48fd; stroke:none;" d="M332 554L333 555L332 554M339.333 554.667L339.667 555.333L339.333 554.667M435 554L436 555L435 554M533.333 554.667L533.667 555.333L533.333 554.667M577.667 554.333L578.333 554.667L577.667 554.333z"/>
<path style="fill:#64c99d; stroke:none;" d="M635.333 554.667L635.667 555.333L635.333 554.667z"/>
<path style="fill:#3e48fd; stroke:none;" d="M844 554L845 555L844 554z"/>
<path style="fill:#64c99d; stroke:none;" d="M272.333 555.667L272.667 556.333L272.333 555.667M307 555L308 556L307 555M333 555L334 556L333 555M435 555L436 556L435 555z"/>
<path style="fill:#3e48fd; stroke:none;" d="M687 555L688 556L687 555z"/>
<path style="fill:#64c99d; stroke:none;" d="M844 555L845 556L844 555M174 556L175 557L174 556z"/>
<path style="fill:#3e48fd; stroke:none;" d="M308 556L309 557L308 556z"/>
<path style="fill:#64c99d; stroke:none;" d="M339 556L340 557L339 556M434 556L435 557L434 556z"/>
<path style="fill:#3e48fd; stroke:none;" d="M436.333 556.667L436.667 557.333L436.333 556.667M530.333 556.667L530.667 557.333L530.333 556.667z"/>
<path style="fill:#64c99d; stroke:none;" d="M533.333 556.667L533.667 557.333L533.333 556.667z"/>
<path style="fill:#3e48fd; stroke:none;" d="M679 556L680 557L679 556z"/>
<path style="fill:#64c99d; stroke:none;" d="M687 556L688 557L687 556z"/>
<path style="fill:#3e48fd; stroke:none;" d="M175.333 557.667L175.667 558.333L175.333 557.667M271 557L272 558L271 557z"/>
<path style="fill:#64c99d; stroke:none;" d="M305.333 557.667L305.667 558.333L305.333 557.667z"/>
<path style="fill:#3e48fd; stroke:none;" d="M309 557L310 558L309 557M334 557L335 558L334 557z"/>
<path style="fill:#64c99d; stroke:none;" d="M340 557L341 558L340 557z"/>
<path style="fill:#3e48fd; stroke:none;" d="M433 557L434 558L433 557M634 557L635 558L634 557M688 557L689 558L688 557M843 557L844 558L843 557z"/>
<path style="fill:#64c99d; stroke:none;" d="M271 558L272 559L271 558z"/>
<path style="fill:#3e48fd; stroke:none;" d="M276 558L277 559L276 558z"/>
<path style="fill:#64c99d; stroke:none;" d="M335 558L336 559L335 558M341 558L342 559L341 558M433 558L434 559L433 558M436.333 558.667L436.667 559.333L436.333 558.667M530 558L531 559L530 558M634.333 558.667L634.667 559.333L634.333 558.667M680 558L680 574L681 574L680 558M688 558L689 559L688 558M843 558L844 559L843 558M175 559L176 560L175 559z"/>
<path style="fill:#3e48fd; stroke:none;" d="M270 559L271 560L270 559z"/>
<path style="fill:#64c99d; stroke:none;" d="M310 559L311 560L310 559z"/>
<path style="fill:#3e48fd; stroke:none;" d="M342.333 559.667L342.667 560.333L342.333 559.667z"/>
<path style="fill:#64c99d; stroke:none;" d="M432 559L433 560L432 559z"/>
<path style="fill:#3e48fd; stroke:none;" d="M529 559L530 560L529 559M534 559L535 560L534 559M689 559L690 560L689 559M842 559L843 560L842 559M176 560L177 561L176 560z"/>
<path style="fill:#64c99d; stroke:none;" d="M270 560L271 561L270 560M275 560L275 571L276 571L275 560z"/>
<path style="fill:#3e48fd; stroke:none;" d="M304 560L304 563L305 563L304 560M311 560L312 561L311 560M336 560L337 561L336 560M431 560L432 561L431 560M437 560L438 561L437 560z"/>
<path style="fill:#64c99d; stroke:none;" d="M529.333 560.667L529.667 561.333L529.333 560.667M534.333 560.667L534.667 561.333L534.333 560.667M842 560L843 561L842 560M176.333 561.667L176.667 562.333L176.333 561.667z"/>
<path style="fill:#3e48fd; stroke:none;" d="M268 561L269 562L268 561M312 561L313 562L312 561M337 561L338 562L337 561M343 561L344 562L343 561M438.333 561.667L438.667 562.333L438.333 561.667M633 561L634 562L633 561z"/>
<path style="fill:#64c99d; stroke:none;" d="M690 561L691 562L690 561z"/>
<path style="fill:#3e48fd; stroke:none;" d="M841 561L842 562L841 561z"/>
<path style="fill:#64c99d; stroke:none;" d="M268 562L269 563L268 562z"/>
<path style="fill:#3e48fd; stroke:none;" d="M313 562L314 563L313 562M338 562L339 563L338 562z"/>
<path style="fill:#64c99d; stroke:none;" d="M343 562L343 566L344 566L343 562M430 562L431 563L430 562z"/>
<path style="fill:#3e48fd; stroke:none;" d="M528 562L529 563L528 562M535 562L536 563L535 562z"/>
<path style="fill:#64c99d; stroke:none;" d="M633 562L634 563L633 562z"/>
<path style="fill:#3e48fd; stroke:none;" d="M691 562L692 563L691 562z"/>
<path style="fill:#64c99d; stroke:none;" d="M841 562L842 563L841 562z"/>
<path style="fill:#3e48fd; stroke:none;" d="M177 563L178 564L177 563z"/>
<path style="fill:#64c99d; stroke:none;" d="M267 563L268 564L267 563M304.333 563.667L304.667 564.333L304.333 563.667z"/>
<path style="fill:#3e48fd; stroke:none;" d="M314 563L315 564L314 563M339 563L340 564L339 563z"/>
<path style="fill:#64c99d; stroke:none;" d="M429 563L430 564L429 563M438 563L439 564L438 563M528 563L529 564L528 563M535 563L536 564L535 563z"/>
<path style="fill:#3e48fd; stroke:none;" d="M692 563L693 564L692 563M840 563L841 564L840 563z"/>
<path style="fill:#64c99d; stroke:none;" d="M177 564L178 565L177 564z"/>
<path style="fill:#3e48fd; stroke:none;" d="M265 564L266 565L265 564z"/>
<path style="fill:#64c99d; stroke:none;" d="M266 564L267 565L266 564z"/>
<path style="fill:#3e48fd; stroke:none;" d="M315 564L316 565L315 564M340 564L341 565L340 564M428 564L429 565L428 564M439 564L440 565L439 564M527 564L528 565L527 564M536.333 564.667L536.667 565.333L536.333 564.667M632.333 564.667L632.667 565.333L632.333 564.667M642 564L643 565L642 564z"/>
<path style="fill:#64c99d; stroke:none;" d="M692 564L693 565L692 564z"/>
<path style="fill:#3e48fd; stroke:none;" d="M839 564L840 565L839 564M178 565L179 566L178 565M316 565L317 566L316 565z"/>
<path style="fill:#64c99d; stroke:none;" d="M341 565L342 566L341 565z"/>
<path style="fill:#3e48fd; stroke:none;" d="M427 565L428 566L427 565z"/>
<path style="fill:#64c99d; stroke:none;" d="M439 565L440 566L439 565M527 565L528 566L527 565z"/>
<path style="fill:#3e48fd; stroke:none;" d="M693 565L694 566L693 565z"/>
<path style="fill:#64c99d; stroke:none;" d="M178 566L179 567L178 566M264 566L265 567L264 566z"/>
<path style="fill:#3e48fd; stroke:none;" d="M303 566L303 571L304 571L303 566M317 566L318 567L317 566M341 566L342 567L341 566M344 566L345 567L344 566z"/>
<path style="fill:#64c99d; stroke:none;" d="M426 566L427 567L426 566z"/>
<path style="fill:#3e48fd; stroke:none;" d="M440 566L441 567L440 566z"/>
<path style="fill:#64c99d; stroke:none;" d="M526 566L527 567L526 566M536 566L537 567L536 566M632 566L633 567L632 566M693 566L694 567L693 566z"/>
<path style="fill:#3e48fd; stroke:none;" d="M838 566L839 567L838 566M179 567L180 568L179 567z"/>
<path style="fill:#64c99d; stroke:none;" d="M263 567L264 568L263 567z"/>
<path style="fill:#3e48fd; stroke:none;" d="M318 567L319 568L318 567z"/>
<path style="fill:#64c99d; stroke:none;" d="M342 567L343 568L342 567z"/>
<path style="fill:#3e48fd; stroke:none;" d="M345 567L346 568L345 567z"/>
<path style="fill:#64c99d; stroke:none;" d="M425 567L426 568L425 567M440 567L441 568L440 567z"/>
<path style="fill:#3e48fd; stroke:none;" d="M525 567L526 568L525 567M631 567L632 568L631 567M694 567L695 568L694 567M837 567L838 568L837 567M262 568L263 569L262 568z"/>
<path style="fill:#64c99d; stroke:none;" d="M318 568L319 569L318 568z"/>
<path style="fill:#3e48fd; stroke:none;" d="M342 568L343 569L342 568z"/>
<path style="fill:#64c99d; stroke:none;" d="M345 568L346 569L345 568M424 568L425 569L424 568z"/>
<path style="fill:#3e48fd; stroke:none;" d="M441 568L442 569L441 568z"/>
<path style="fill:#64c99d; stroke:none;" d="M525 568L526 569L525 568z"/>
<path style="fill:#3e48fd; stroke:none;" d="M537 568L538 569L537 568z"/>
<path style="fill:#64c99d; stroke:none;" d="M631 568L632 569L631 568M694 568L695 569L694 568M837 568L838 569L837 568M180 569L181 570L180 569M262 569L263 570L262 569M346 569L347 570L346 569M423 569L424 570L423 569z"/>
<path style="fill:#3e48fd; stroke:none;" d="M524 569L525 570L524 569z"/>
<path style="fill:#64c99d; stroke:none;" d="M537 569L538 570L537 569M641.333 569.667L641.667 570.333L641.333 569.667z"/>
<path style="fill:#3e48fd; stroke:none;" d="M695 569L696 570L695 569z"/>
<path style="fill:#64c99d; stroke:none;" d="M836 569L837 570L836 569z"/>
<path style="fill:#3e48fd; stroke:none;" d="M181 570L182 571L181 570M261 570L262 571L261 570z"/>
<path style="fill:#64c99d; stroke:none;" d="M319 570L320 571L319 570z"/>
<path style="fill:#3e48fd; stroke:none;" d="M344 570L345 571L344 570M348 570L349 571L348 570M421 570L422 571L421 570z"/>
<path style="fill:#64c99d; stroke:none;" d="M442 570L443 571L442 570M524 570L525 571L524 570z"/>
<path style="fill:#3e48fd; stroke:none;" d="M538 570L539 571L538 570M630 570L631 571L630 570z"/>
<path style="fill:#64c99d; stroke:none;" d="M695 570L696 571L695 570z"/>
<path style="fill:#3e48fd; stroke:none;" d="M835 570L836 571L835 570M182 571L183 572L182 571z"/>
<path style="fill:#64c99d; stroke:none;" d="M261 571L262 572L261 571z"/>
<path style="fill:#3e48fd; stroke:none;" d="M275 571L276 583L277 583L275 571z"/>
<path style="fill:#64c99d; stroke:none;" d="M303 571L303 575L304 575L303 571z"/>
<path style="fill:#3e48fd; stroke:none;" d="M320 571L321 572L320 571M345 571L346 572L345 571z"/>
<path style="fill:#64c99d; stroke:none;" d="M349 571L350 572L349 571z"/>
<path style="fill:#3e48fd; stroke:none;" d="M350.667 571.333L351.333 571.667L350.667 571.333M420 571L421 572L420 571z"/>
<path style="fill:#64c99d; stroke:none;" d="M443 571L444 572L443 571z"/>
<path style="fill:#3e48fd; stroke:none;" d="M523 571L524 572L523 571z"/>
<path style="fill:#64c99d; stroke:none;" d="M538 571L539 572L538 571M630 571L631 572L630 571z"/>
<path style="fill:#3e48fd; stroke:none;" d="M696 571L697 572L696 571M834 571L835 572L834 571z"/>
<path style="fill:#64c99d; stroke:none;" d="M182 572L183 573L182 572z"/>
<path style="fill:#3e48fd; stroke:none;" d="M260 572L261 573L260 572z"/>
<path style="fill:#64c99d; stroke:none;" d="M346 572L347 573L346 572z"/>
<path style="fill:#3e48fd; stroke:none;" d="M352 572L353 573L352 572z"/>
<path style="fill:#64c99d; stroke:none;" d="M419 572L420 573L419 572M444 572L445 573L444 572z"/>
<path style="fill:#3e48fd; stroke:none;" d="M522 572L523 573L522 572M539 572L540 573L539 572M629 572L630 573L629 572M642 572L642 579L643 579L642 572z"/>
<path style="fill:#64c99d; stroke:none;" d="M696 572L697 573L696 572z"/>
<path style="fill:#3e48fd; stroke:none;" d="M833 572L834 573L833 572z"/>
<path style="fill:#64c99d; stroke:none;" d="M183 573L184 574L183 573M260 573L261 574L260 573M321 573L322 574L321 573z"/>
<path style="fill:#3e48fd; stroke:none;" d="M346.333 573.667L346.667 574.333L346.333 573.667z"/>
<path style="fill:#64c99d; stroke:none;" d="M353 573L354 574L353 573z"/>
<path style="fill:#3e48fd; stroke:none;" d="M417 573L418 574L417 573z"/>
<path style="fill:#64c99d; stroke:none;" d="M445 573L446 574L445 573z"/>
<path style="fill:#3e48fd; stroke:none;" d="M521 573L522 574L521 573z"/>
<path style="fill:#64c99d; stroke:none;" d="M539 573L540 574L539 573M629 573L630 574L629 573z"/>
<path style="fill:#3e48fd; stroke:none;" d="M697 573L698 574L697 573z"/>
<path style="fill:#64c99d; stroke:none;" d="M833 573L834 574L833 573M184 574L185 575L184 574M259 574L260 575L259 574M322 574L323 575L322 574M354 574L355 575L354 574z"/>
<path style="fill:#3e48fd; stroke:none;" d="M355 574L356 575L355 574z"/>
<path style="fill:#64c99d; stroke:none;" d="M416 574L417 575L416 574z"/>
<path style="fill:#3e48fd; stroke:none;" d="M447 574L448 575L447 574M519 574L520 575L519 574z"/>
<path style="fill:#64c99d; stroke:none;" d="M540 574L541 575L540 574M628 574L629 575L628 574z"/>
<path style="fill:#3e48fd; stroke:none;" d="M680 574L680 586L681 586L680 574z"/>
<path style="fill:#64c99d; stroke:none;" d="M697 574L698 575L697 574z"/>
<path style="fill:#3e48fd; stroke:none;" d="M832 574L833 575L832 574M185 575L186 576L185 575M258 575L259 576L258 575M302.333 575.667L302.667 576.333L302.333 575.667z"/>
<path style="fill:#64c99d; stroke:none;" d="M323 575L324 576L323 575M346.333 575.667L346.667 576.333L346.333 575.667M356 575L357 576L356 575z"/>
<path style="fill:#3e48fd; stroke:none;" d="M357 575L358 576L357 575M413 575L414 576L413 575z"/>
<path style="fill:#64c99d; stroke:none;" d="M414 575L415 576L414 575z"/>
<path style="fill:#3e48fd; stroke:none;" d="M448 575L449 576L448 575z"/>
<path style="fill:#64c99d; stroke:none;" d="M518 575L519 576L518 575z"/>
<path style="fill:#3e48fd; stroke:none;" d="M627 575L628 576L627 575M698 575L699 576L698 575M831 575L832 576L831 575M186 576L187 577L186 576z"/>
<path style="fill:#64c99d; stroke:none;" d="M258 576L259 577L258 576M324 576L325 577L324 576z"/>
<path style="fill:#3e48fd; stroke:none;" d="M325 576L326 577L325 576z"/>
<path style="fill:#64c99d; stroke:none;" d="M358 576L359 577L358 576z"/>
<path style="fill:#3e48fd; stroke:none;" d="M359 576L360 577L359 576M411 576L412 577L411 576z"/>
<path style="fill:#64c99d; stroke:none;" d="M412 576L413 577L412 576z"/>
<path style="fill:#3e48fd; stroke:none;" d="M449 576L450 577L449 576M516 576L517 577L516 576z"/>
<path style="fill:#64c99d; stroke:none;" d="M541 576L542 577L541 576M627 576L628 577L627 576M698 576L699 577L698 576z"/>
<path style="fill:#3e48fd; stroke:none;" d="M830 576L831 577L830 576z"/>
<path style="fill:#64c99d; stroke:none;" d="M186 577L187 578L186 577M257 577L258 578L257 577M302 577L302 580L303 580L302 577M345 577L346 578L345 577M361 577L362 578L361 577z"/>
<path style="fill:#3e48fd; stroke:none;" d="M362.667 577.333L363.333 577.667L362.667 577.333M408 577L409 578L408 577z"/>
<path style="fill:#64c99d; stroke:none;" d="M409 577L410 578L409 577M450 577L451 578L450 577z"/>
<path style="fill:#3e48fd; stroke:none;" d="M515 577L516 578L515 577z"/>
<path style="fill:#64c99d; stroke:none;" d="M626 577L627 578L626 577z"/>
<path style="fill:#3e48fd; stroke:none;" d="M699 577L700 578L699 577z"/>
<path style="fill:#64c99d; stroke:none;" d="M829 577L830 578L829 577M187 578L188 579L187 578z"/>
<path style="fill:#3e48fd; stroke:none;" d="M256 578L257 579L256 578z"/>
<path style="fill:#64c99d; stroke:none;" d="M326 578L327 579L326 578z"/>
<path style="fill:#3e48fd; stroke:none;" d="M344 578L345 579L344 578z"/>
<path style="fill:#64c99d; stroke:none;" d="M364 578L365 579L364 578z"/>
<path style="fill:#3e48fd; stroke:none;" d="M365 578L366 579L365 578M405 578L406 579L405 578z"/>
<path style="fill:#64c99d; stroke:none;" d="M406.667 578.333L407.333 578.667L406.667 578.333M451 578L452 579L451 578M514 578L515 579L514 578M542 578L543 579L542 578z"/>
<path style="fill:#3e48fd; stroke:none;" d="M625 578L626 579L625 578z"/>
<path style="fill:#64c99d; stroke:none;" d="M699 578L700 579L699 578M827.667 578.333L828.333 578.667L827.667 578.333z"/>
<path style="fill:#3e48fd; stroke:none;" d="M188 579L189 580L188 579z"/>
<path style="fill:#64c99d; stroke:none;" d="M255 579L256 580L255 579M327 579L328 580L327 579M344 579L345 580L344 579M366 579L367 580L366 579z"/>
<path style="fill:#3e48fd; stroke:none;" d="M367.667 579.333L368.333 579.667L367.667 579.333M402 579L403 580L402 579z"/>
<path style="fill:#64c99d; stroke:none;" d="M403 579L404 580L403 579M452 579L453 580L452 579z"/>
<path style="fill:#3e48fd; stroke:none;" d="M453 579L454 580L453 579z"/>
<path style="fill:#64c99d; stroke:none;" d="M513 579L514 580L513 579M625 579L626 580L625 579M642 579L643 580L642 579z"/>
<path style="fill:#3e48fd; stroke:none;" d="M700 579L701 580L700 579z"/>
<path style="fill:#64c99d; stroke:none;" d="M826 579L827 580L826 579z"/>
<path style="fill:#3e48fd; stroke:none;" d="M189 580L190 581L189 580M253 580L254 581L253 580z"/>
<path style="fill:#64c99d; stroke:none;" d="M254 580L255 581L254 580z"/>
<path style="fill:#3e48fd; stroke:none;" d="M301 580L301 584L302 584L301 580z"/>
<path style="fill:#64c99d; stroke:none;" d="M328 580L329 581L328 580M343 580L344 581L343 580M369 580L370 581L369 580z"/>
<path style="fill:#3e48fd; stroke:none;" d="M370.667 580.333L371.333 580.667L370.667 580.333M398.667 580.333L399.333 580.667L398.667 580.333z"/>
<path style="fill:#64c99d; stroke:none;" d="M400 580L401 581L400 580M454 580L455 581L454 580z"/>
<path style="fill:#3e48fd; stroke:none;" d="M455 580L456 581L455 580M511 580L512 581L511 580z"/>
<path style="fill:#64c99d; stroke:none;" d="M512 580L513 581L512 580M543 580L544 581L543 580M624 580L625 581L624 580z"/>
<path style="fill:#3e48fd; stroke:none;" d="M643.333 580.667L643.667 581.333L643.333 580.667z"/>
<path style="fill:#64c99d; stroke:none;" d="M700 580L701 581L700 580M825 580L826 581L825 580M190 581L191 582L190 581z"/>
<path style="fill:#3e48fd; stroke:none;" d="M252 581L253 582L252 581z"/>
<path style="fill:#64c99d; stroke:none;" d="M329 581L330 582L329 581z"/>
<path style="fill:#3e48fd; stroke:none;" d="M342 581L343 582L342 581z"/>
<path style="fill:#64c99d; stroke:none;" d="M372.667 581.333L373.333 581.667L372.667 581.333z"/>
<path style="fill:#3e48fd; stroke:none;" d="M374 581L374 582L378 582L374 581M392 581L392 582L396 582L392 581z"/>
<path style="fill:#64c99d; stroke:none;" d="M396.667 581.333L397.333 581.667L396.667 581.333M456 581L457 582L456 581z"/>
<path style="fill:#3e48fd; stroke:none;" d="M457 581L458 582L457 581M509 581L510 582L509 581z"/>
<path style="fill:#64c99d; stroke:none;" d="M510 581L511 582L510 581M544 581L545 582L544 581z"/>
<path style="fill:#3e48fd; stroke:none;" d="M623 581L624 582L623 581M701 581L702 582L701 581z"/>
<path style="fill:#64c99d; stroke:none;" d="M823 581L824 582L823 581M191 582L192 583L191 582z"/>
<path style="fill:#3e48fd; stroke:none;" d="M192 582L193 583L192 582M250 582L251 583L250 582z"/>
<path style="fill:#64c99d; stroke:none;" d="M251 582L252 583L251 582M275 582L276 583L275 582M330 582L331 583L330 582z"/>
<path style="fill:#3e48fd; stroke:none;" d="M341 582L342 583L341 582z"/>
<path style="fill:#64c99d; stroke:none;" d="M378 582L378 583L382 583L378 582z"/>
<path style="fill:#3e48fd; stroke:none;" d="M382 582L382 583L387 583L382 582z"/>
<path style="fill:#64c99d; stroke:none;" d="M387 582L387 583L392 583L387 582M458 582L459 583L458 582z"/>
<path style="fill:#3e48fd; stroke:none;" d="M459 582L460 583L459 582M507 582L508 583L507 582M545 582L546 583L545 582M644 582L645 583L644 582z"/>
<path style="fill:#64c99d; stroke:none;" d="M701 582L702 583L701 582z"/>
<path style="fill:#3e48fd; stroke:none;" d="M821 582L822 583L821 582z"/>
<path style="fill:#64c99d; stroke:none;" d="M822 582L823 583L822 582z"/>
<path style="fill:#3e48fd; stroke:none;" d="M193 583L194 584L193 583M249 583L250 584L249 583z"/>
<path style="fill:#64c99d; stroke:none;" d="M277 583L277 584L289 584L277 583z"/>
<path style="fill:#3e48fd; stroke:none;" d="M289 583L289 584L294 584L289 583z"/>
<path style="fill:#64c99d; stroke:none;" d="M331 583L332 584L331 583M340 583L341 584L340 583z"/>
<path style="fill:#3e48fd; stroke:none;" d="M460.667 583.333L461.333 583.667L460.667 583.333M505 583L506 584L505 583z"/>
<path style="fill:#64c99d; stroke:none;" d="M506 583L507 584L506 583M622 583L623 584L622 583z"/>
<path style="fill:#3e48fd; stroke:none;" d="M645 583L646 584L645 583M702 583L703 584L702 583z"/>
<path style="fill:#64c99d; stroke:none;" d="M820 583L821 584L820 583M194 584L195 585L194 584z"/>
<path style="fill:#3e48fd; stroke:none;" d="M247 584L248 585L247 584z"/>
<path style="fill:#64c99d; stroke:none;" d="M248 584L249 585L248 584M294 584L294 585L297 585L294 584z"/>
<path style="fill:#3e48fd; stroke:none;" d="M297.667 584.333L298.333 584.667L297.667 584.333z"/>
<path style="fill:#64c99d; stroke:none;" d="M301 584L302 585L301 584M332 584L333 585L332 584z"/>
<path style="fill:#3e48fd; stroke:none;" d="M333.667 584.333L334.333 584.667L333.667 584.333z"/>
<path style="fill:#64c99d; stroke:none;" d="M338 584L339 585L338 584M462.667 584.333L463.333 584.667L462.667 584.333z"/>
<path style="fill:#3e48fd; stroke:none;" d="M502.667 584.333L503.333 584.667L502.667 584.333z"/>
<path style="fill:#64c99d; stroke:none;" d="M504 584L505 585L504 584M546 584L547 585L546 584z"/>
<path style="fill:#3e48fd; stroke:none;" d="M621.333 584.667L621.667 585.333L621.333 584.667M646 584L647 585L646 584M661 584L662 585L661 584z"/>
<path style="fill:#64c99d; stroke:none;" d="M662.667 584.333L663.333 584.667L662.667 584.333M702 584L703 585L702 584M818 584L819 585L818 584M195 585L196 586L195 585z"/>
<path style="fill:#3e48fd; stroke:none;" d="M196 585L197 586L196 585M245 585L246 586L245 585z"/>
<path style="fill:#64c99d; stroke:none;" d="M246 585L247 586L246 585M300 585L301 586L300 585M336 585L337 586L336 585M465 585L466 586L465 585z"/>
<path style="fill:#3e48fd; stroke:none;" d="M466 585L467 586L466 585M500 585L501 586L500 585z"/>
<path style="fill:#64c99d; stroke:none;" d="M501 585L502 586L501 585M547 585L548 586L547 585M647 585L648 586L647 585z"/>
<path style="fill:#3e48fd; stroke:none;" d="M660 585L661 586L660 585z"/>
<path style="fill:#64c99d; stroke:none;" d="M664 585L665 586L664 585z"/>
<path style="fill:#3e48fd; stroke:none;" d="M703 585L704 586L703 585M816 585L817 586L816 585z"/>
<path style="fill:#64c99d; stroke:none;" d="M817 585L818 586L817 585M197 586L198 587L197 586z"/>
<path style="fill:#3e48fd; stroke:none;" d="M242 586L243 587L242 586z"/>
<path style="fill:#64c99d; stroke:none;" d="M243 586L244 587L243 586M467.667 586.333L468.333 586.667L467.667 586.333z"/>
<path style="fill:#3e48fd; stroke:none;" d="M469.667 586.333L470.333 586.667L469.667 586.333M496.667 586.333L497.333 586.667L496.667 586.333z"/>
<path style="fill:#64c99d; stroke:none;" d="M498 586L499 587L498 586M548 586L549 587L548 586z"/>
<path style="fill:#3e48fd; stroke:none;" d="M620 586L621 587L620 586z"/>
<path style="fill:#64c99d; stroke:none;" d="M649 586L650 587L649 586z"/>
<path style="fill:#3e48fd; stroke:none;" d="M650.667 586.333L651.333 586.667L650.667 586.333z"/>
<path style="fill:#64c99d; stroke:none;" d="M660 586L661 587L660 586z"/>
<path style="fill:#3e48fd; stroke:none;" d="M679 586L680 587L679 586z"/>
<path style="fill:#64c99d; stroke:none;" d="M703 586L704 587L703 586M815 586L816 587L815 586M198 587L199 588L198 587z"/>
<path style="fill:#3e48fd; stroke:none;" d="M199 587L200 588L199 587M239 587L240 588L239 587z"/>
<path style="fill:#64c99d; stroke:none;" d="M240 587L241 588L240 587M471 587L471 588L475 588L471 587z"/>
<path style="fill:#3e48fd; stroke:none;" d="M475.667 587.333L476.333 587.667L475.667 587.333M491 587L491 588L494 588L491 587z"/>
<path style="fill:#64c99d; stroke:none;" d="M494 587L495 588L494 587M549 587L550 588L549 587z"/>
<path style="fill:#3e48fd; stroke:none;" d="M619 587L620 588L619 587z"/>
<path style="fill:#64c99d; stroke:none;" d="M652.667 587.333L653.333 587.667L652.667 587.333z"/>
<path style="fill:#3e48fd; stroke:none;" d="M654 587L654 588L658 588L654 587z"/>
<path style="fill:#64c99d; stroke:none;" d="M658 587L659 588L658 587M666.667 587.333L667.333 587.667L666.667 587.333z"/>
<path style="fill:#3e48fd; stroke:none;" d="M668 587L668 588L677 588L668 587z"/>
<path style="fill:#64c99d; stroke:none;" d="M677 587L678 588L677 587z"/>
<path style="fill:#3e48fd; stroke:none;" d="M812 587L813 588L812 587z"/>
<path style="fill:#64c99d; stroke:none;" d="M813.667 587.333L814.333 587.667L813.667 587.333M201 588L202 589L201 588z"/>
<path style="fill:#3e48fd; stroke:none;" d="M202 588L203 589L202 588M237 588L238 589L237 588z"/>
<path style="fill:#64c99d; stroke:none;" d="M238 588L239 589L238 588M478 588L478 589L491 589L478 588M550 588L551 589L550 588z"/>
<path style="fill:#3e48fd; stroke:none;" d="M551 588L552 589L551 588M618 588L619 589L618 588z"/>
<path style="fill:#64c99d; stroke:none;" d="M704 588L705 589L704 588z"/>
<path style="fill:#3e48fd; stroke:none;" d="M810 588L811 589L810 588z"/>
<path style="fill:#64c99d; stroke:none;" d="M811 588L812 589L811 588M203 589L204 590L203 589z"/>
<path style="fill:#3e48fd; stroke:none;" d="M234 589L235 590L234 589z"/>
<path style="fill:#64c99d; stroke:none;" d="M235.667 589.333L236.333 589.667L235.667 589.333z"/>
<path style="fill:#3e48fd; stroke:none;" d="M553 589L554 590L553 589M616 589L617 590L616 589z"/>
<path style="fill:#64c99d; stroke:none;" d="M617 589L618 590L617 589z"/>
<path style="fill:#3e48fd; stroke:none;" d="M807 589L808 590L807 589z"/>
<path style="fill:#64c99d; stroke:none;" d="M808 589L809 590L808 589M205 590L206 591L205 590z"/>
<path style="fill:#3e48fd; stroke:none;" d="M206.667 590.333L207.333 590.667L206.667 590.333M229.667 590.333L230.333 590.667L229.667 590.333z"/>
<path style="fill:#64c99d; stroke:none;" d="M231.667 590.333L232.333 590.667L231.667 590.333M554 590L555 591L554 590M615 590L616 591L615 590M705 590L706 591L705 590z"/>
<path style="fill:#3e48fd; stroke:none;" d="M803.667 590.333L804.333 590.667L803.667 590.333z"/>
<path style="fill:#64c99d; stroke:none;" d="M805 590L806 591L805 590M209.667 591.333L210.333 591.667L209.667 591.333z"/>
<path style="fill:#3e48fd; stroke:none;" d="M211 591L211 592L214 592L211 591M222 591L222 592L225 592L222 591z"/>
<path style="fill:#64c99d; stroke:none;" d="M225 591L225 592L229 592L225 591z"/>
<path style="fill:#3e48fd; stroke:none;" d="M556 591L557 592L556 591M612 591L613 592L612 591z"/>
<path style="fill:#64c99d; stroke:none;" d="M613 591L614 592L613 591z"/>
<path style="fill:#3e48fd; stroke:none;" d="M706 591L707 592L706 591M801 591L802 592L801 591z"/>
<path style="fill:#64c99d; stroke:none;" d="M214 592L214 593L221 593L214 592M557 592L558 593L557 592z"/>
<path style="fill:#3e48fd; stroke:none;" d="M558 592L559 593L558 592M611 592L612 593L611 592z"/>
<path style="fill:#64c99d; stroke:none;" d="M706 592L707 593L706 592z"/>
<path style="fill:#3e48fd; stroke:none;" d="M742.667 592.333L743.333 592.667L742.667 592.333M798.667 592.333L799.333 592.667L798.667 592.333z"/>
<path style="fill:#64c99d; stroke:none;" d="M800 592L801 593L800 592M559 593L560 594L559 593z"/>
<path style="fill:#3e48fd; stroke:none;" d="M560 593L561 594L560 593z"/>
<path style="fill:#64c99d; stroke:none;" d="M610 593L611 594L610 593z"/>
<path style="fill:#3e48fd; stroke:none;" d="M708 593L709 594L708 593M728 593L728 594L735 594L728 593z"/>
<path style="fill:#64c99d; stroke:none;" d="M735 593L735 594L739 594L735 593M740 593L741 594L740 593M747 593L747 594L750 594L747 593z"/>
<path style="fill:#3e48fd; stroke:none;" d="M793 593L793 594L796 594L793 593z"/>
<path style="fill:#64c99d; stroke:none;" d="M796.667 593.333L797.333 593.667L796.667 593.333M561 594L562 595L561 594z"/>
<path style="fill:#3e48fd; stroke:none;" d="M562 594L563 595L562 594M607 594L608 595L607 594z"/>
<path style="fill:#64c99d; stroke:none;" d="M608 594L609 595L608 594M708 594L709 595L708 594z"/>
<path style="fill:#3e48fd; stroke:none;" d="M724 594L724 595L727 595L724 594z"/>
<path style="fill:#64c99d; stroke:none;" d="M727 594L728 595L727 594M750 594L751 595L750 594z"/>
<path style="fill:#3e48fd; stroke:none;" d="M785 594L785 595L789 595L785 594z"/>
<path style="fill:#64c99d; stroke:none;" d="M789 594L789 595L792 595L789 594M563 595L564 596L563 595z"/>
<path style="fill:#3e48fd; stroke:none;" d="M564 595L565 596L564 595M605 595L606 596L605 595z"/>
<path style="fill:#64c99d; stroke:none;" d="M606 595L607 596L606 595z"/>
<path style="fill:#3e48fd; stroke:none;" d="M709 595L710 596L709 595M721.667 595.333L722.333 595.667L721.667 595.333z"/>
<path style="fill:#64c99d; stroke:none;" d="M723 595L724 596L723 595M751 595L752 596L751 595z"/>
<path style="fill:#3e48fd; stroke:none;" d="M781 595L782 596L781 595z"/>
<path style="fill:#64c99d; stroke:none;" d="M782 595L782 596L785 596L782 595M565.667 596.333L566.333 596.667L565.667 596.333z"/>
<path style="fill:#3e48fd; stroke:none;" d="M567 596L568 597L567 596M602 596L603 597L602 596z"/>
<path style="fill:#64c99d; stroke:none;" d="M603 596L604 597L603 596z"/>
<path style="fill:#3e48fd; stroke:none;" d="M710 596L711 597L710 596M719 596L720 597L719 596z"/>
<path style="fill:#64c99d; stroke:none;" d="M720 596L721 597L720 596M752 596L753 597L752 596z"/>
<path style="fill:#3e48fd; stroke:none;" d="M770 596L770 597L778 597L770 596z"/>
<path style="fill:#64c99d; stroke:none;" d="M778 596L778 597L781 597L778 596M569 597L570 598L569 597z"/>
<path style="fill:#3e48fd; stroke:none;" d="M570 597L570 598L573 598L570 597M598.667 597.333L599.333 597.667L598.667 597.333z"/>
<path style="fill:#64c99d; stroke:none;" d="M600.667 597.333L601.333 597.667L600.667 597.333z"/>
<path style="fill:#3e48fd; stroke:none;" d="M711 597L712 598L711 597M716 597L717 598L716 597z"/>
<path style="fill:#64c99d; stroke:none;" d="M717.667 597.333L718.333 597.667L717.667 597.333z"/>
<path style="fill:#3e48fd; stroke:none;" d="M753 597L754 598L753 597M767.667 597.333L768.333 597.667L767.667 597.333z"/>
<path style="fill:#64c99d; stroke:none;" d="M769 597L770 598L769 597M573.667 598.333L574.333 598.667L573.667 598.333z"/>
<path style="fill:#3e48fd; stroke:none;" d="M575 598L575 599L578 599L575 598M589 598L589 599L595 599L589 598z"/>
<path style="fill:#64c99d; stroke:none;" d="M595.667 598.333L596.333 598.667L595.667 598.333z"/>
<path style="fill:#3e48fd; stroke:none;" d="M712.667 598.333L713.333 598.667L712.667 598.333z"/>
<path style="fill:#64c99d; stroke:none;" d="M714.667 598.333L715.333 598.667L714.667 598.333M754 598L755 599L754 598z"/>
<path style="fill:#3e48fd; stroke:none;" d="M764.667 598.333L765.333 598.667L764.667 598.333z"/>
<path style="fill:#64c99d; stroke:none;" d="M766 598L767 599L766 598M579 599L579 600L588 600L579 599M755 599L756 600L755 599z"/>
<path style="fill:#3e48fd; stroke:none;" d="M756.667 599.333L757.333 599.667L756.667 599.333z"/>
<path style="fill:#64c99d; stroke:none;" d="M758 599L758 600L763 600L758 599M960 1008L960 1024L992 1024L992 1008L960 1008z"/>
<path style="fill:#fc6f3e; stroke:none;" d="M992 1008L992 1024L1008 1024L1008 1008L992 1008z"/>
<path style="fill:#3e48fd; stroke:none;" d="M1008 1008L1008 1024L1024 1024L1024 1008L1008 1008z"/>
</svg>
